<svg id="Livello_1" data-name="Livello 1" xmlns="http://www.w3.org/2000/svg" xmlns:xlink="http://www.w3.org/1999/xlink" viewBox="0 0 500 500"><defs><style>.cls-1{fill:none;}.cls-2{clip-path:url(#clip-path);}.cls-3{fill:#1c2735;}.cls-4{clip-path:url(#clip-path-2);}.cls-5{fill:#c3317d;}</style><clipPath id="clip-path"><rect class="cls-1" x="19.09" y="123.1" width="380.23" height="268.17"/></clipPath><clipPath id="clip-path-2"><rect class="cls-1" x="98.64" y="110.16" width="382.22" height="267.75"/></clipPath></defs><title>New</title><g class="cls-2"><path class="cls-3" d="M151.71,391.11c44.43,0,74.85-22,100.89-49.67l2.88-3.14c7.57-8.26,14.64-16.78,21.14-24.75l2.31-2.82,3.09-3.81c32.17-39.63,62.55-77.06,116.52-80.8l-2.31-33.46c-68.4,4.74-106.49,51.66-140.09,93.06-31.29,38.56-58.31,71.85-104.43,71.85-55.13,0-100-45-100-100.39s44.83-100.42,100-100.42a99.84,99.84,0,0,1,56.89,18c7-8.54,14.18-17.18,21.82-25.54a133.33,133.33,0,0,0-78.71-26c-73.52,0-133.34,60.1-133.34,134S78.19,391.11,151.71,391.11"/></g><g class="cls-4"><path class="cls-5" d="M103,307.16c68.43-4.73,106.51-51.68,140.11-93.08,31.28-38.56,58.31-71.85,104.43-71.85,55.11,0,100,45,100,100.39S402.62,343,347.51,343a99.79,99.79,0,0,1-56.89-18c-7,8.54-14.17,17.18-21.84,25.52a133.29,133.29,0,0,0,78.73,26c73.52,0,133.34-60.08,133.34-134S421,108.69,347.51,108.69c-62,0-96.72,42.8-130.31,84.19C185,232.51,154.65,270,100.69,273.68L103,307.16"/></g></svg>