<svg xmlns="http://www.w3.org/2000/svg" xmlns:xlink="http://www.w3.org/1999/xlink" width="500" zoomAndPan="magnify" viewBox="0 0 375 374.999991" height="500" preserveAspectRatio="xMidYMid meet" version="1.0"><defs><clipPath id="id1"><path d="M 67.640625 121 L 265 121 L 265 260.457031 L 67.640625 260.457031 Z M 67.640625 121 " clip-rule="nonzero"/></clipPath><clipPath id="id2"><path d="M 110 114.535156 L 307.359375 114.535156 L 307.359375 253 L 110 253 Z M 110 114.535156 " clip-rule="nonzero"/></clipPath></defs><rect x="-37.5" width="450" fill="#1c2735" y="-37.499999" height="449.999989" fill-opacity="1"/><rect x="-37.5" width="450" fill="#ffffff" y="-37.499999" height="449.999989" fill-opacity="1"/><rect x="-37.5" width="450" fill="#1c2735" y="-37.499999" height="449.999989" fill-opacity="1"/><g clip-path="url(#id1)"><path fill="#ffffff" d="M 136.550781 260.386719 C 159.609375 260.386719 175.398438 249.015625 188.910156 234.695312 L 190.40625 233.070312 C 194.339844 228.796875 198 224.398438 201.378906 220.277344 L 202.578125 218.8125 C 203.109375 218.15625 203.644531 217.503906 204.175781 216.847656 C 220.867188 196.355469 236.632812 176.996094 264.640625 175.0625 L 263.449219 157.753906 C 227.949219 160.207031 208.183594 184.476562 190.746094 205.890625 C 174.511719 225.820312 160.492188 243.039062 136.550781 243.039062 C 107.953125 243.039062 84.6875 219.75 84.6875 191.121094 C 84.6875 162.492188 107.953125 139.203125 136.550781 139.203125 C 147.230469 139.203125 157.515625 142.554688 166.082031 148.488281 C 169.695312 144.070312 173.433594 139.597656 177.402344 135.28125 C 165.699219 126.722656 151.410156 121.855469 136.550781 121.855469 C 98.398438 121.855469 67.359375 152.925781 67.359375 191.121094 C 67.359375 229.3125 98.398438 260.386719 136.550781 260.386719 " fill-opacity="1" fill-rule="nonzero"/></g><g clip-path="url(#id2)"><path fill="#c3317d" d="M 111.269531 216.96875 C 146.769531 214.515625 166.535156 190.246094 183.972656 168.832031 C 200.207031 148.898438 214.226562 131.683594 238.167969 131.683594 C 266.765625 131.683594 290.03125 154.972656 290.03125 183.601562 C 290.03125 212.230469 266.765625 235.519531 238.167969 235.519531 C 227.488281 235.519531 217.199219 232.167969 208.636719 226.234375 C 205.019531 230.648438 201.28125 235.121094 197.308594 239.4375 C 209.015625 248 223.304688 252.867188 238.167969 252.867188 C 276.320312 252.867188 307.359375 221.796875 307.359375 183.601562 C 307.359375 145.410156 276.320312 114.335938 238.167969 114.335938 C 205.996094 114.335938 187.972656 136.46875 170.539062 157.871094 C 153.847656 178.367188 138.082031 197.726562 110.078125 199.660156 L 111.269531 216.96875 " fill-opacity="1" fill-rule="nonzero"/></g></svg>