<svg id="Livello_1" data-name="Livello 1" xmlns="http://www.w3.org/2000/svg" xmlns:xlink="http://www.w3.org/1999/xlink" viewBox="0 0 397.79 112.5"><defs><style>.cls-1{fill:none;}.cls-2{clip-path:url(#clip-path);}.cls-3{fill:#1c2735;}.cls-4{clip-path:url(#clip-path-2);}.cls-5{fill:#c3317d;}</style><clipPath id="clip-path"><rect class="cls-1" x="27.67" y="29.84" width="99.48" height="70.16"/></clipPath><clipPath id="clip-path-2"><rect class="cls-1" x="48.49" y="26.45" width="100" height="70.05"/></clipPath></defs><title>New</title><g class="cls-2"><path class="cls-3" d="M62.37,100C74,100,82,94.21,88.77,87l.75-.82c2-2.16,3.83-4.39,5.53-6.48l.61-.74.8-1c8.42-10.37,16.37-20.16,30.49-21.14L126.34,48c-17.89,1.24-27.85,13.52-36.65,24.35-8.18,10.09-15.25,18.8-27.32,18.8A26.27,26.27,0,1,1,77.26,43.34c1.82-2.23,3.7-4.49,5.7-6.68A35,35,0,1,0,62.37,100"/></g><g class="cls-4"><path class="cls-5" d="M49.62,78c17.9-1.24,27.87-13.52,36.66-24.35,8.18-10.09,15.25-18.8,27.32-18.8A26.27,26.27,0,1,1,98.71,82.68C96.89,84.91,95,87.17,93,89.36a35,35,0,1,0,20.6-63.3c-16.22,0-25.31,11.2-34.09,22C71.09,58.46,63.14,68.26,49,69.23l.6,8.76"/></g><path class="cls-3" d="M177.26,83.46c10.47,0,19.12-5.27,19.12-16.17,0-11.33-9.66-13.71-17.31-15.65-5.42-1.3-9.74-2.38-9.74-5.92,0-3.32,3.53-4.83,7.06-4.83,4.12,0,7.73,2,7.73,6.42h10.75c0-10.11-6.56-16.32-18.18-16.32-11.19,0-18.33,5.49-18.33,15.16,0,10.9,9.23,13.14,16.88,15,5.49,1.23,10.1,2.31,10.1,6.28,0,3.75-4,5.91-8.15,5.91-4.47,0-8.51-2.38-8.51-7.21H157.63C157.63,77,165.64,83.46,177.26,83.46Z"/><path class="cls-3" d="M262.05,31.94l-9.74,33.55-13.57-33h-3.68L221.78,65.56l-9.95-33.62H200.28l15.87,50.51h9.75l11-28.29,11.25,28.29h9.74l15.59-50.51Z"/><path class="cls-3" d="M304.26,83.6c15.37,0,26.85-11.33,26.85-26.41s-11.48-26.34-26.85-26.34-27,11.41-27,26.34S288.82,83.6,304.26,83.6Zm0-10.32a15.69,15.69,0,0,1-15.87-16.09,15.64,15.64,0,0,1,15.87-16c9,0,15.74,6.86,15.74,16S313.28,73.28,304.26,73.28Z"/><path class="cls-3" d="M374.47,31.94h-39V42.11h14.07V82.45h10.9V42.11h14.06Z"/><path class="cls-5" d="M306.19,28c2.42,0,4.43-1.22,4.43-3.74s-2.24-3.17-4-3.62c-1.25-.3-2.25-.55-2.25-1.37s.81-1.12,1.63-1.12,1.79.47,1.79,1.49h2.49c0-2.34-1.52-3.78-4.21-3.78s-4.25,1.27-4.25,3.51c0,2.52,2.14,3,3.91,3.47,1.27.29,2.34.54,2.34,1.45s-.93,1.37-1.89,1.37a1.75,1.75,0,0,1-2-1.67h-2.55C301.65,26.53,303.5,28,306.19,28Z"/><path class="cls-5" d="M320.7,16.11h-9v2.35h3.26V27.8h2.53V18.46h3.25Z"/><path class="cls-5" d="M327.11,28.06a4.58,4.58,0,0,0,4.83-4.65v-7.3H329.4v7.18a2.3,2.3,0,1,1-4.59,0V16.11h-2.54v7.3A4.59,4.59,0,0,0,327.11,28.06Z"/><path class="cls-5" d="M338.9,16.11h-4.41V27.8h4.41A5.69,5.69,0,0,0,344.83,22,5.69,5.69,0,0,0,338.9,16.11Zm0,9.35H337v-7h1.84A3.28,3.28,0,0,1,342.24,22,3.31,3.31,0,0,1,338.85,25.46Z"/><path class="cls-5" d="M346.86,27.8h2.53V16.11h-2.53Z"/><path class="cls-5" d="M357.62,28.06A6.1,6.1,0,1,0,351.37,22,6,6,0,0,0,357.62,28.06Zm0-2.38a3.72,3.72,0,0,1,0-7.43,3.57,3.57,0,0,1,3.64,3.7A3.6,3.6,0,0,1,357.62,25.68Z"/><path class="cls-5" d="M369.69,28c2.42,0,4.42-1.22,4.42-3.74s-2.24-3.17-4-3.62c-1.25-.3-2.25-.55-2.25-1.37s.82-1.12,1.64-1.12,1.78.47,1.78,1.49h2.49c0-2.34-1.52-3.78-4.2-3.78s-4.25,1.27-4.25,3.51c0,2.52,2.14,3,3.91,3.47,1.27.29,2.34.54,2.34,1.45s-.94,1.37-1.89,1.37a1.74,1.74,0,0,1-2-1.67h-2.56C365.14,26.53,367,28,369.69,28Z"/></svg>