<?xml version="1.0" encoding="utf-8"?>
<!-- Generator: Adobe Illustrator 24.0.0, SVG Export Plug-In . SVG Version: 6.00 Build 0)  -->
<svg version="1.1" id="Livello_1" xmlns="http://www.w3.org/2000/svg" xmlns:xlink="http://www.w3.org/1999/xlink" x="0px" y="0px"
	 viewBox="0 0 500 124" style="enable-background:new 0 0 500 124;" xml:space="preserve">
<style type="text/css">
	.st0{clip-path:url(#SVGID_2_);}
	.st1{fill:#FFFFFF;}
	.st2{clip-path:url(#SVGID_4_);}
	.st3{fill:#C3317D;}
</style>
<g>
	<defs>
		<rect id="SVGID_1_" x="72.5" y="32.4" width="99.5" height="70.2"/>
	</defs>
	<clipPath id="SVGID_2_">
		<use xlink:href="#SVGID_1_"  style="overflow:visible;"/>
	</clipPath>
	<g class="st0">
		<path class="st1" d="M107.2,102.6c11.6,0,19.6-5.8,26.4-13l0.8-0.8c2-2.2,3.8-4.4,5.5-6.5l0.6-0.7c0.3-0.3,0.5-0.7,0.8-1
			c8.4-10.4,16.4-20.2,30.5-21.1l-0.6-8.8c-17.9,1.2-27.9,13.5-36.7,24.3c-8.2,10.1-15.3,18.8-27.3,18.8
			c-14.4,0-26.2-11.8-26.2-26.3s11.7-26.3,26.2-26.3c5.4,0,10.6,1.7,14.9,4.7c1.8-2.2,3.7-4.5,5.7-6.7c-5.9-4.3-13.1-6.8-20.6-6.8
			c-19.2,0-34.9,15.7-34.9,35S88,102.6,107.2,102.6"/>
	</g>
</g>
<g>
	<defs>
		<rect id="SVGID_3_" x="93.3" y="29.1" width="100" height="70.1"/>
	</defs>
	<clipPath id="SVGID_4_">
		<use xlink:href="#SVGID_3_"  style="overflow:visible;"/>
	</clipPath>
	<g class="st2">
		<path class="st3" d="M94.5,80.6c17.9-1.2,27.9-13.5,36.7-24.4c8.2-10.1,15.3-18.8,27.3-18.8c14.4,0,26.2,11.8,26.2,26.3
			S172.9,90,158.4,90c-5.4,0-10.6-1.7-14.9-4.7c-1.8,2.2-3.7,4.5-5.7,6.7c5.9,4.3,13.1,6.8,20.6,6.8c19.2,0,34.9-15.7,34.9-35
			c0-19.3-15.7-35-34.9-35c-16.2,0-25.3,11.2-34.1,22c-8.4,10.4-16.4,20.2-30.5,21.1L94.5,80.6"/>
	</g>
</g>
<g>
	<g transform="translate(154.051464, 204.320436)">
		<g>
			<path class="st1" d="M73.9-115.8c10.5,0,19.1-5.3,19.1-16.2c0-11.3-9.7-13.7-17.3-15.7c-5.4-1.3-9.7-2.4-9.7-5.9
				c0-3.3,3.5-4.8,7.1-4.8c4.1,0,7.7,2,7.7,6.4h10.8c0-10.1-6.6-16.3-18.2-16.3c-11.2,0-18.3,5.5-18.3,15.2c0,10.9,9.2,13.1,16.9,15
				c5.5,1.2,10.1,2.3,10.1,6.3c0,3.8-4,5.9-8.2,5.9c-4.5,0-8.5-2.4-8.5-7.2h-11C54.2-122.3,62.2-115.8,73.9-115.8z"/>
		</g>
	</g>
</g>
<g>
	<g transform="translate(187.551746, 204.320436)">
		<g>
			<path class="st1" d="M125.2-167.3l-9.7,33.6l-13.6-33h-3.7l-13.3,33.1l-10-33.6H63.4l15.9,50.5H89l11-28.3l11.3,28.3h9.7
				l15.6-50.5H125.2z"/>
		</g>
	</g>
</g>
<g>
	<g transform="translate(243.890659, 204.320436)">
		<g>
			<path class="st1" d="M111-115.6c15.4,0,26.8-11.3,26.8-26.4c0-15-11.5-26.3-26.8-26.3c-15.4,0-27,11.4-27,26.3
				C84-127,95.6-115.6,111-115.6z M111-125.9c-9,0-15.9-7-15.9-16.1s6.9-16,15.9-16s15.7,6.9,15.7,16
				C126.8-132.9,120-125.9,111-125.9z"/>
		</g>
	</g>
</g>
<g>
	<g transform="translate(288.431423, 204.320436)">
		<g>
			<path class="st1" d="M136.7-167.3h-39v10.2h14.1v40.3h10.9v-40.3h14.1V-167.3z"/>
		</g>
	</g>
</g>
<g>
	<g transform="translate(263.725591, 163.333016)">
		<g>
			<path class="st3" d="M93.1-130.2c2.4,0,4.4-1.2,4.4-3.7c0-2.6-2.2-3.2-4-3.6c-1.2-0.3-2.2-0.6-2.2-1.4c0-0.8,0.8-1.1,1.6-1.1
				c1,0,1.8,0.5,1.8,1.5h2.5c0-2.3-1.5-3.8-4.2-3.8c-2.6,0-4.2,1.3-4.2,3.5c0,2.5,2.1,3,3.9,3.5c1.3,0.3,2.3,0.5,2.3,1.5
				c0,0.9-0.9,1.4-1.9,1.4c-1,0-2-0.6-2-1.7h-2.6C88.6-131.7,90.4-130.2,93.1-130.2z"/>
		</g>
	</g>
</g>
<g>
	<g transform="translate(271.477061, 163.333016)">
		<g>
			<path class="st3" d="M99.9-142.1h-9v2.4h3.3v9.3h2.5v-9.3h3.3V-142.1z"/>
		</g>
	</g>
</g>
<g>
	<g transform="translate(278.790236, 163.333016)">
		<g>
			<path class="st3" d="M99-130.2c2.8,0,4.8-1.9,4.8-4.7v-7.3h-2.5v7.2c0,1.5-1,2.4-2.3,2.4c-1.4,0-2.3-0.9-2.3-2.4v-7.2h-2.5v7.3
				C94.1-132.1,96.2-130.2,99-130.2z"/>
		</g>
	</g>
</g>
<g>
	<g transform="translate(287.856575, 163.333016)">
		<g>
			<path class="st3" d="M101.7-142.1h-4.4v11.7h4.4c3.4,0,5.9-2.5,5.9-5.8S105.1-142.1,101.7-142.1z M101.6-132.8h-1.8v-7h1.8
				c2,0,3.4,1.4,3.4,3.5C105-134.3,103.7-132.8,101.6-132.8z"/>
		</g>
	</g>
</g>
<g>
	<g transform="translate(297.135789, 163.333016)">
		<g>
			<path class="st3" d="M100.4-130.4h2.5v-11.7h-2.5V-130.4z"/>
		</g>
	</g>
</g>
<g>
	<g transform="translate(301.04283, 163.333016)">
		<g>
			<path class="st3" d="M107.2-130.2c3.6,0,6.2-2.6,6.2-6.1c0-3.5-2.7-6.1-6.2-6.1c-3.6,0-6.2,2.6-6.2,6.1
				C101-132.8,103.7-130.2,107.2-130.2z M107.2-132.6c-2.1,0-3.7-1.6-3.7-3.7c0-2.1,1.6-3.7,3.7-3.7c2.1,0,3.6,1.6,3.6,3.7
				C110.9-134.2,109.3-132.6,107.2-132.6z"/>
		</g>
	</g>
</g>
<g>
	<g transform="translate(311.348894, 163.333016)">
		<g>
			<path class="st3" d="M109-130.2c2.4,0,4.4-1.2,4.4-3.7c0-2.6-2.2-3.2-4-3.6c-1.2-0.3-2.2-0.6-2.2-1.4c0-0.8,0.8-1.1,1.6-1.1
				c1,0,1.8,0.5,1.8,1.5h2.5c0-2.3-1.5-3.8-4.2-3.8c-2.6,0-4.2,1.3-4.2,3.5c0,2.5,2.1,3,3.9,3.5c1.3,0.3,2.3,0.5,2.3,1.5
				c0,0.9-0.9,1.4-1.9,1.4c-1,0-2-0.6-2-1.7h-2.6C104.4-131.7,106.3-130.2,109-130.2z"/>
		</g>
	</g>
</g>
</svg>
